<svg xmlns="http://www.w3.org/2000/svg" xmlns:xlink="http://www.w3.org/1999/xlink" width="1500" zoomAndPan="magnify" viewBox="0 0 1125 374.999991" height="500" preserveAspectRatio="xMidYMid meet" version="1.0"><path fill="#3869be" d="M 536.78125 70.867188 C 537.859375 71.339844 538.917969 71.851562 539.960938 72.398438 L 542.007812 73.457031 C 545.074219 75.1875 547.925781 76.867188 550.023438 79.742188 C 552.34375 83.734375 553.765625 88.253906 555.269531 92.601562 L 556.355469 90.890625 C 557.496094 89.25 558.421875 88.148438 559.9375 86.898438 C 561.359375 85.714844 562.738281 84.527344 564.082031 83.253906 C 567.894531 79.636719 571.484375 76.945312 576.625 75.617188 C 582.921875 74.417969 588.902344 74.511719 595.144531 75.921875 C 597.390625 76.109375 599.039062 75.472656 601.199219 74.847656 C 606.207031 74.324219 612.050781 74.191406 616.820312 75.921875 C 621.386719 78.199219 625.664062 81.078125 629.519531 84.414062 C 630.601562 85.3125 630.601562 85.3125 631.816406 85.867188 C 633.925781 85.992188 635.871094 85.617188 637.941406 85.253906 C 643.421875 84.871094 648.191406 85.734375 653.160156 88.066406 C 655.265625 89.109375 657.320312 90.230469 659.375 91.375 L 661.371094 92.441406 C 663.589844 93.804688 665.433594 95.0625 666.726562 97.378906 C 668.019531 100.1875 668.941406 103.097656 669.785156 106.070312 L 670.464844 108.378906 C 672.355469 115.25 672.140625 122.636719 670.496094 129.535156 C 667.378906 139.382812 661.097656 147.792969 653.863281 155.050781 C 649.976562 158.578125 645.34375 160.746094 640.390625 162.398438 L 640.660156 163.863281 C 641.070312 166.089844 641.476562 168.320312 641.882812 170.546875 L 642.308594 172.855469 C 643.78125 180.964844 644.167969 188.804688 644.140625 197.027344 L 644.136719 198.554688 C 644.074219 222.921875 642.125 243.972656 634.226562 267.207031 L 633.488281 269.394531 C 630.855469 276.988281 628.015625 284.828125 622.125 290.515625 C 618.792969 293.179688 614.769531 295.082031 610.613281 296.058594 C 609.519531 296.222656 608.421875 296.359375 607.320312 296.476562 L 606.089844 296.640625 C 598.101562 297.640625 598.101562 297.640625 594.304688 296.480469 C 592.589844 295.582031 591.101562 294.589844 589.5625 293.417969 L 587.945312 292.273438 C 583.800781 289.183594 580.519531 285.796875 578.230469 281.132812 C 575.613281 275.054688 574.863281 269.398438 575.476562 262.804688 C 576.117188 258.839844 577.367188 255.007812 578.539062 251.171875 L 579.265625 248.769531 C 581.492188 241.40625 581.492188 241.40625 582.53125 238.046875 C 586.011719 226.785156 586.691406 216.433594 586.78125 204.664062 C 586.796875 203.015625 586.820312 201.371094 586.859375 199.722656 C 586.90625 197.332031 586.925781 194.941406 586.941406 192.550781 L 587.003906 190.335938 C 586.996094 187.496094 586.960938 185.28125 585.582031 182.757812 C 583.566406 180.101562 581.566406 178.1875 578.578125 176.632812 C 576.429688 175.484375 574.421875 174.351562 572.453125 172.921875 C 567.941406 170.128906 561.984375 170.277344 556.808594 170.101562 C 555.007812 170.050781 553.203125 170.011719 551.402344 169.972656 C 550.464844 169.949219 549.527344 169.925781 548.589844 169.902344 C 546.328125 169.84375 544.0625 169.792969 541.796875 169.742188 L 541.613281 171.109375 C 540.976562 175.734375 540.246094 180.339844 539.460938 184.941406 L 538.472656 190.746094 C 536.183594 204.238281 534.074219 217.746094 532.082031 231.28125 C 528.5625 255.132812 528.5625 255.132812 527.089844 263.902344 C 526.945312 264.753906 526.804688 265.609375 526.667969 266.460938 C 525.6875 272.429688 524.644531 278.757812 521.128906 283.8125 C 517.589844 288.054688 514 290.832031 508.804688 292.804688 C 505.726562 293.789062 502.761719 294.347656 499.542969 294.640625 L 497.136719 294.863281 C 493.882812 295.0625 490.914062 295.113281 487.835938 293.875 C 486.097656 292.8125 484.570312 291.667969 483.007812 290.355469 L 481.363281 289.039062 C 476.792969 285.171875 473.550781 280.808594 471.257812 275.273438 C 468.15625 266.273438 470.402344 256.757812 471.6875 247.585938 L 472.152344 244.214844 C 472.476562 241.863281 472.804688 239.507812 473.128906 237.152344 C 473.539062 234.21875 473.945312 231.28125 474.351562 228.347656 C 476.542969 212.472656 478.824219 196.613281 481.171875 180.765625 L 479.175781 181.054688 L 476.539062 181.414062 L 475.230469 181.605469 C 472.386719 181.988281 469.929688 181.957031 467.085938 181.375 C 461.867188 178.875 456.890625 174.867188 453.25 170.378906 C 450.5625 166.375 448.417969 161.09375 447.992188 156.257812 C 447.679688 145.289062 447.679688 145.289062 449.78125 140.527344 C 451.023438 138.261719 452.503906 136.164062 454.226562 134.234375 L 455.335938 132.953125 C 458.675781 129.34375 462.339844 127.289062 466.980469 125.667969 C 468.820312 125.109375 470.664062 124.589844 472.519531 124.09375 L 474.519531 123.542969 C 480.5625 121.917969 486.652344 120.671875 492.804688 119.539062 L 493.207031 117.578125 C 493.710938 115.121094 494.21875 112.664062 494.730469 110.203125 C 494.949219 109.152344 495.164062 108.097656 495.378906 107.046875 C 496.539062 101.386719 497.773438 95.765625 499.292969 90.191406 L 499.660156 88.820312 C 500.660156 85.269531 502.011719 82.507812 504.441406 79.742188 L 505.546875 78.4375 C 509.207031 74.449219 513.433594 72.359375 518.527344 70.675781 C 524.261719 69.257812 531.128906 69.003906 536.78125 70.867188 M 1029.179688 74.617188 C 1033.625 76.503906 1037.882812 78.984375 1041.503906 82.191406 C 1044.613281 86.460938 1046.847656 91.042969 1047.625 96.273438 C 1048.40625 104.199219 1048.320312 112.199219 1048.238281 120.152344 L 1049.554688 120.28125 C 1070.988281 122.441406 1070.988281 122.441406 1079.191406 127.636719 C 1082.527344 130.050781 1084.371094 133.09375 1086.125 136.789062 C 1088.5 142.691406 1089.199219 148.730469 1088.65625 155.050781 C 1087.78125 160.195312 1085.335938 164.585938 1082.074219 168.617188 C 1078.441406 172.539062 1073.878906 175.464844 1068.816406 177.1875 C 1066.503906 177.726562 1064.347656 177.957031 1061.980469 178.085938 L 1059.640625 178.222656 C 1057.210938 178.328125 1054.78125 178.324219 1052.347656 178.320312 L 1050.015625 178.316406 L 1048.238281 178.316406 C 1047.421875 205.359375 1047.421875 205.359375 1046.667969 232.40625 C 1046.644531 233.339844 1046.621094 234.277344 1046.59375 235.210938 C 1046.367188 243.515625 1046.164062 251.832031 1046.707031 260.125 C 1047.816406 280.5625 1047.816406 280.5625 1045.335938 285.941406 L 1044.566406 287.292969 L 1043.734375 288.761719 C 1040.726562 293.617188 1037.035156 297.1875 1032.050781 299.980469 C 1026.105469 302.949219 1018.738281 304.121094 1012.109375 303.824219 C 1009.40625 303.082031 1007.546875 301.890625 1005.371094 300.152344 L 1003.78125 299.007812 C 999.4375 295.75 995.195312 292.019531 992.933594 286.988281 C 987.730469 272.097656 988.667969 255.222656 988.753906 239.691406 C 988.765625 237.113281 988.773438 234.535156 988.777344 231.957031 C 988.792969 226.933594 988.8125 221.910156 988.835938 216.886719 L 987.226562 218.007812 L 985.085938 219.492188 L 984.027344 220.230469 C 980.597656 222.609375 977.09375 224.867188 973.566406 227.101562 L 971.570312 228.375 C 970.21875 229.234375 968.867188 230.097656 967.515625 230.953125 C 965.707031 232.101562 963.902344 233.253906 962.097656 234.40625 C 955.132812 238.847656 948.148438 243.25 941.132812 247.617188 C 938.601562 249.195312 936.070312 250.78125 933.546875 252.375 C 912.914062 265.378906 912.914062 265.378906 906.164062 266.476562 L 904.199219 266.84375 C 901.460938 267.222656 899.179688 267.453125 896.554688 266.476562 C 894.957031 265.558594 893.535156 264.546875 892.082031 263.417969 L 890.515625 262.273438 C 886.308594 259.085938 882.324219 255.777344 880.097656 250.90625 C 877.800781 244.714844 876.871094 238.785156 877.382812 232.191406 C 878.300781 227.203125 880.175781 223.253906 883.148438 219.171875 C 889.015625 212.976562 896.699219 208.65625 903.792969 204.03125 L 907.449219 201.632812 C 909.253906 200.449219 911.058594 199.265625 912.863281 198.082031 C 918.953125 194.09375 925.007812 190.058594 931.058594 186.007812 C 932.5 185.050781 933.945312 184.097656 935.394531 183.148438 L 936.726562 182.269531 C 937.523438 181.75 938.316406 181.226562 939.117188 180.710938 C 939.984375 180.136719 940.835938 179.535156 941.683594 178.925781 L 942.296875 177.703125 C 937.753906 177.769531 933.214844 177.839844 928.671875 177.910156 C 926.5625 177.945312 924.453125 177.976562 922.339844 178.007812 C 919.902344 178.042969 917.464844 178.082031 915.027344 178.121094 L 912.644531 178.160156 C 907.816406 178.246094 903.039062 178.464844 898.234375 178.980469 C 895.929688 178.914062 894.476562 178.222656 892.464844 177.128906 C 891.292969 176.328125 890.144531 175.5 889.019531 174.640625 L 887.335938 173.4375 C 883.121094 170.277344 880.105469 166.886719 877.84375 162.128906 C 875.289062 155.832031 875.074219 149.53125 875.546875 142.804688 C 876.148438 138.554688 877.960938 135.382812 880.523438 131.976562 C 884.171875 127.46875 888.101562 124.613281 893.304688 121.988281 C 897.804688 120.339844 902.539062 120.074219 907.296875 119.96875 L 908.691406 119.933594 C 910.222656 119.898438 911.75 119.863281 913.28125 119.828125 L 914.914062 119.792969 C 929.460938 119.457031 944.011719 119.339844 958.5625 119.214844 C 962.203125 119.183594 965.839844 119.148438 969.480469 119.117188 C 976.542969 119.050781 983.609375 118.988281 990.675781 118.925781 L 990.636719 117.085938 C 990.589844 114.792969 990.5625 112.503906 990.539062 110.210938 C 990.527344 109.226562 990.511719 108.238281 990.488281 107.253906 C 990.328125 99.601562 991.0625 93.148438 994.808594 86.289062 C 997.394531 82.304688 1000.371094 79.082031 1004.570312 76.796875 C 1011.992188 73.453125 1021.304688 71.960938 1029.179688 74.617188 M 758.582031 73.007812 C 761.132812 74.296875 763.539062 75.726562 765.929688 77.292969 C 766.398438 77.585938 766.871094 77.878906 767.355469 78.183594 C 769.519531 79.753906 770.671875 81.273438 771.898438 83.664062 C 774.695312 90.152344 776.078125 97.03125 775.558594 104.089844 C 774.585938 110.367188 772.796875 116.488281 771.1875 122.628906 C 762.511719 155.78125 759.671875 190.976562 758.847656 225.152344 L 758.769531 228.292969 C 758.703125 230.816406 758.640625 233.339844 758.582031 235.867188 L 760.085938 235.425781 C 801.179688 223.5625 801.179688 223.5625 812.433594 225.820312 C 817.273438 227.347656 822.105469 230.074219 825.941406 233.417969 C 829.558594 237.640625 831.167969 242.816406 832.277344 248.179688 C 833.273438 254.089844 832.9375 259.605469 830.84375 265.253906 C 828.765625 269.5625 826.085938 272.960938 822.199219 275.765625 C 815.664062 279.90625 807.273438 281.589844 799.917969 283.773438 C 797.554688 284.480469 795.191406 285.183594 792.832031 285.894531 L 791.074219 286.417969 C 787.738281 287.414062 784.410156 288.441406 781.089844 289.5 C 767.414062 293.863281 753.332031 298.121094 738.984375 299.539062 C 738.496094 299.589844 738.007812 299.644531 737.507812 299.695312 C 729.664062 300.429688 729.664062 300.429688 726.078125 299.050781 C 723.390625 297.6875 721.101562 295.933594 718.777344 294.03125 L 717.449219 293.0625 C 712.578125 289.328125 709.765625 283.820312 707.398438 278.292969 C 705.582031 273.835938 704.429688 269.355469 703.464844 264.640625 L 703.210938 263.414062 C 701.230469 253.472656 701.371094 243.484375 701.429688 233.398438 C 701.441406 231.605469 701.4375 229.8125 701.433594 228.019531 C 701.410156 209.726562 702.652344 191.617188 704.539062 173.417969 L 704.777344 171.074219 C 707.265625 147.011719 711.09375 123.515625 717.015625 100.0625 L 717.59375 97.742188 C 719.308594 91.152344 721.28125 84.226562 726.019531 79.15625 C 729.925781 75.375 734.121094 73.484375 739.289062 71.941406 C 745.609375 70.4375 752.582031 70.359375 758.582031 73.007812 M 394.171875 83.074219 C 398.542969 85.027344 403.09375 87.792969 406.332031 91.363281 C 409.128906 95.542969 411.007812 101.007812 411.464844 106.007812 C 411.980469 114.207031 410.578125 121.269531 408.285156 129.105469 C 399.167969 160.527344 393.886719 192.269531 391.148438 224.847656 L 393.28125 224.367188 C 398.902344 223.109375 404.523438 221.882812 410.171875 220.75 L 412.09375 220.359375 C 418.992188 218.972656 426.515625 217.542969 433.441406 219.410156 C 436.925781 220.601562 440.054688 222.34375 443.203125 224.234375 L 444.566406 224.921875 C 446.066406 225.800781 446.984375 226.558594 448.101562 227.90625 C 452.035156 235.21875 453.238281 241.785156 453.128906 249.988281 C 452.984375 254.722656 451.753906 258.222656 449.480469 262.347656 C 447.417969 265.574219 445.195312 267.804688 441.855469 269.6875 C 438.28125 271.5 434.738281 272.871094 430.898438 274.011719 L 429.167969 274.539062 C 427.328125 275.097656 425.484375 275.648438 423.644531 276.199219 L 421.734375 276.769531 C 407.578125 281.023438 393.59375 284.988281 378.921875 287.035156 C 377.027344 287.300781 375.132812 287.585938 373.242188 287.871094 C 372.027344 288.050781 370.816406 288.226562 369.601562 288.40625 L 367.925781 288.65625 C 365.121094 289.046875 362.679688 289.339844 359.917969 288.519531 C 352.5625 284.335938 345.898438 278.667969 341.546875 271.375 C 334.144531 258.597656 333.523438 244.589844 333.433594 230.089844 C 333.695312 187.757812 342.460938 143.417969 355.515625 103.277344 L 356.140625 101.328125 C 357.84375 96.320312 360.195312 92.164062 364.011719 88.46875 C 371.867188 82 384.480469 79.941406 394.171875 83.074219 M 217.5 81.988281 C 221.75 84.203125 225.644531 86.554688 228.867188 90.152344 C 232.304688 95.980469 234.332031 102.558594 234.648438 109.324219 C 234.316406 117.253906 231.179688 125.203125 228.636719 132.664062 L 227.667969 135.542969 C 226.984375 137.558594 226.304688 139.574219 225.617188 141.585938 C 224.773438 144.078125 223.933594 146.570312 223.097656 149.0625 C 208.933594 191.285156 192.953125 232.6875 173.140625 272.601562 L 172.121094 274.664062 C 171.230469 276.441406 170.335938 278.214844 169.429688 279.984375 L 168.675781 281.484375 C 166.621094 285.429688 164.085938 288.824219 160.554688 291.574219 C 153.613281 295.53125 146.515625 296.980469 138.570312 297.238281 C 135.960938 297.203125 134.140625 296.636719 131.84375 295.332031 C 130.683594 294.519531 129.550781 293.675781 128.4375 292.804688 L 126.640625 291.527344 C 122.554688 288.460938 119.679688 285.148438 117.414062 280.558594 C 115.472656 275.640625 114.796875 270.726562 115.039062 265.445312 L 115.121094 263.066406 C 115.839844 256.925781 119.535156 251.0625 122.234375 245.605469 C 134.875 219.96875 145.539062 193.5 155.382812 166.683594 L 155.902344 165.261719 C 160.023438 154.035156 164.023438 142.765625 167.972656 131.480469 L 168.558594 129.808594 C 170.628906 123.882812 172.664062 117.949219 174.613281 111.980469 L 175.113281 110.457031 C 175.886719 108.09375 176.65625 105.730469 177.40625 103.363281 C 179.367188 97.292969 181.460938 91.4375 186.078125 86.859375 C 189.199219 84.296875 192.601562 82.851562 196.410156 81.582031 L 197.738281 81.125 C 203.886719 79.398438 211.613281 79.457031 217.5 81.988281 M 305.339844 95.664062 C 309.839844 97.667969 314.417969 100.191406 317.769531 103.851562 C 320.878906 108.320312 322.378906 113.878906 323.015625 119.238281 C 323.5 125.742188 322.277344 131.960938 320.664062 138.226562 L 319.792969 141.738281 C 319.488281 142.964844 319.179688 144.191406 318.871094 145.417969 C 317.792969 149.683594 316.75 153.957031 315.710938 158.234375 C 315.605469 158.65625 315.503906 159.078125 315.394531 159.515625 C 307.941406 190.066406 302.296875 221.667969 300.933594 253.121094 C 300.324219 266.792969 300.324219 266.792969 296.695312 272.886719 C 293.535156 277.441406 289.550781 280.570312 284.59375 283.007812 C 278.878906 285.582031 271.917969 287.167969 265.609375 286.683594 C 262.730469 285.71875 260.617188 284.285156 258.261719 282.398438 L 256.765625 281.347656 C 252.800781 278.492188 249.222656 275.175781 246.910156 270.832031 C 241.972656 259.574219 242.917969 247.027344 244.214844 235.066406 C 248.695312 195.730469 255.21875 155.582031 266.144531 117.472656 L 266.609375 115.847656 C 268.191406 110.628906 270.433594 105.691406 274.175781 101.671875 C 278.277344 97.972656 283.121094 96.019531 288.410156 94.710938 C 293.960938 93.8125 300.019531 93.742188 305.339844 95.664062 M 68.722656 91.308594 C 72.847656 93.132812 76.992188 95.113281 79.828125 98.722656 C 81.828125 101.632812 83.5 104.75 85.222656 107.832031 C 86.101562 109.386719 86.980469 110.9375 87.859375 112.492188 L 88.527344 113.675781 C 90.578125 117.296875 92.683594 120.886719 94.792969 124.476562 C 103.167969 138.777344 110.945312 153.101562 117.335938 168.40625 L 118.199219 170.441406 C 120.917969 177.078125 123.011719 184.015625 122.160156 191.230469 C 121.328125 196.101562 118.816406 200.167969 116.035156 204.183594 C 111.875 208.34375 106.722656 211.636719 101.054688 213.246094 C 96.148438 214.421875 90.046875 215.242188 85.109375 213.941406 C 81.207031 212.28125 77.652344 209.328125 74.546875 206.476562 L 73.40625 205.441406 C 69.371094 201.367188 67.214844 196.421875 64.832031 191.292969 C 63.578125 188.601562 62.296875 185.929688 61.011719 183.257812 L 60.238281 181.644531 C 57.070312 175.074219 53.464844 168.765625 49.867188 162.421875 C 46.9375 157.179688 44.214844 151.824219 41.476562 146.476562 L 40.769531 145.101562 C 38.355469 140.402344 36.0625 135.644531 33.898438 130.828125 L 33.277344 129.457031 C 30.703125 123.640625 30.039062 118.558594 30.453125 112.191406 C 31.203125 107.296875 33.582031 103.222656 36.578125 99.335938 C 39.765625 95.863281 43.113281 93.441406 47.601562 91.988281 C 54.441406 89.90625 61.828125 88.894531 68.722656 91.308594 " fill-opacity="1" fill-rule="nonzero"/><path fill="#fdce02" d="M 1023.132812 95.050781 C 1024.546875 96.082031 1024.546875 96.082031 1025.582031 97.5 C 1026.371094 100.769531 1026.210938 103.996094 1026.15625 107.332031 C 1026.09375 114.226562 1026.390625 121.078125 1026.769531 127.957031 L 1026.847656 129.492188 C 1026.925781 130.941406 1027.007812 132.390625 1027.089844 133.839844 L 1027.160156 135.164062 C 1027.28125 137.160156 1027.441406 139.050781 1028.03125 140.96875 L 1029.53125 141.003906 C 1058.167969 141.738281 1058.167969 141.738281 1066 144.640625 C 1067.222656 146.476562 1067.222656 146.476562 1067.429688 147.890625 C 1067.46875 150.429688 1067.457031 152.152344 1066.265625 154.4375 C 1064.429688 155.945312 1062.792969 156.503906 1060.488281 156.886719 C 1057.886719 157.011719 1055.300781 156.945312 1052.699219 156.871094 L 1050.453125 156.824219 C 1048.09375 156.777344 1045.738281 156.714844 1043.378906 156.65625 C 1041.773438 156.621094 1040.171875 156.585938 1038.570312 156.550781 C 1034.648438 156.464844 1030.726562 156.375 1026.804688 156.273438 C 1026.640625 167.097656 1026.484375 177.921875 1026.328125 188.742188 C 1026.253906 193.773438 1026.179688 198.804688 1026.105469 203.832031 C 1026.03125 208.699219 1025.960938 213.566406 1025.890625 218.429688 C 1025.863281 220.359375 1025.835938 222.289062 1025.804688 224.21875 C 1025.664062 233.816406 1025.550781 243.40625 1025.621094 253.003906 C 1025.628906 254.242188 1025.636719 255.480469 1025.644531 256.714844 C 1025.667969 260.492188 1025.703125 264.265625 1025.765625 268.042969 C 1025.777344 269.355469 1025.789062 270.671875 1025.796875 271.984375 L 1025.84375 273.777344 C 1025.847656 275.261719 1025.828125 276.648438 1025.582031 278.109375 C 1024.457031 279.679688 1024.457031 279.679688 1023.132812 280.558594 C 1020.859375 281.316406 1018.757812 281.351562 1016.394531 281.171875 C 1014.980469 280.789062 1014.980469 280.789062 1013.945312 279.949219 C 1012.453125 277.355469 1011.789062 275.136719 1011.417969 272.179688 L 1011.148438 270.105469 L 1010.882812 267.703125 L 1010.71875 266.378906 C 1010.035156 260.261719 1010.179688 254.105469 1010.195312 247.957031 L 1010.195312 245.984375 C 1010.21875 222.609375 1010.582031 199.238281 1010.882812 175.867188 L 1008.828125 177.03125 L 1007.667969 177.683594 C 1006.371094 178.445312 1005.183594 179.300781 1003.996094 180.21875 L 1002.582031 181.296875 L 1001.085938 182.449219 C 979.746094 198.609375 956.882812 212.773438 934.1875 226.929688 C 931.480469 228.617188 928.78125 230.3125 926.085938 232.015625 C 925.140625 232.609375 924.195312 233.207031 923.25 233.800781 C 920.777344 235.355469 918.328125 236.9375 915.890625 238.542969 L 914.316406 239.574219 C 913.328125 240.21875 912.34375 240.871094 911.367188 241.535156 C 909.160156 242.964844 907.316406 243.996094 904.691406 244.371094 C 902.492188 244.4375 902.492188 244.4375 901.074219 243.863281 C 899.566406 242.019531 898.761719 240.011719 898.203125 237.703125 C 898.03125 236.140625 898.03125 236.140625 898.203125 234.640625 C 900.933594 231.074219 905.523438 228.660156 909.242188 226.25 C 911.761719 224.601562 914.261719 222.921875 916.765625 221.25 L 920.160156 218.988281 L 921.804688 217.890625 L 926.644531 214.664062 C 927.339844 214.203125 928.035156 213.738281 928.734375 213.277344 C 931.246094 211.601562 933.757812 209.921875 936.265625 208.238281 C 943.449219 203.429688 950.652344 198.671875 957.96875 194.066406 C 961.746094 191.679688 965.449219 189.179688 969.078125 186.566406 L 970.464844 185.664062 L 971.691406 185.664062 L 972.304688 183.824219 C 973.347656 183.195312 973.347656 183.195312 974.636719 182.640625 C 976.21875 181.902344 977.179688 181.398438 978.425781 180.152344 C 979.652344 178.925781 979.652344 178.925781 981.789062 177.886719 C 984.988281 176.328125 987.835938 174.335938 990.75 172.308594 C 991.933594 171.488281 993.117188 170.671875 994.300781 169.855469 L 996.140625 168.582031 C 998.050781 167.28125 999.96875 165.988281 1001.898438 164.714844 L 1003.777344 163.460938 C 1004.980469 162.660156 1006.183594 161.863281 1007.386719 161.074219 L 1009.023438 159.976562 L 1010.472656 159.015625 L 1011.496094 158.109375 L 1011.496094 156.273438 L 899.429688 156.273438 C 898.015625 153.449219 897.332031 151.941406 896.867188 149.003906 C 896.765625 148.410156 896.671875 147.820312 896.570312 147.210938 L 896.367188 145.867188 C 897.15625 145.265625 897.949219 144.667969 898.742188 144.066406 L 900.074219 143.054688 C 901.265625 142.191406 901.265625 142.191406 902.492188 141.582031 C 903.605469 141.515625 904.722656 141.492188 905.839844 141.488281 L 907.996094 141.472656 L 910.375 141.464844 L 912.875 141.449219 C 914.675781 141.4375 916.476562 141.429688 918.277344 141.421875 C 921.148438 141.410156 924.023438 141.394531 926.894531 141.375 C 932.503906 141.339844 938.117188 141.3125 943.726562 141.28125 C 950.792969 141.246094 957.859375 141.207031 964.925781 141.167969 C 967.300781 141.152344 969.675781 141.136719 972.050781 141.128906 C 985.613281 141.066406 999.164062 140.785156 1012.71875 140.355469 L 1012.59375 139.011719 L 1012.425781 137.246094 L 1012.261719 135.496094 C 1011.585938 128.203125 1011.347656 120.925781 1011.3125 113.601562 C 1011.308594 112.566406 1011.300781 111.527344 1011.289062 110.488281 C 1011.273438 109.011719 1011.269531 107.535156 1011.273438 106.0625 L 1011.257812 104.730469 C 1011.277344 102.613281 1011.53125 101.085938 1012.335938 99.117188 C 1013.484375 97.25 1014.550781 96.234375 1016.394531 95.050781 C 1018.777344 94.257812 1020.71875 94.382812 1023.132812 95.050781 M 527.691406 91.246094 C 528.9375 91.375 528.9375 91.375 530.660156 92.105469 C 532.253906 93.425781 533.027344 94.355469 533.835938 96.273438 C 534.125 100.628906 533.257812 104.632812 532.363281 108.882812 L 531.910156 111.085938 C 531.433594 113.394531 530.949219 115.703125 530.46875 118.007812 L 529.492188 122.71875 C 528.699219 126.558594 527.902344 130.398438 527.097656 134.234375 L 528.527344 134.226562 C 533.015625 134.203125 537.5 134.183594 541.984375 134.171875 C 544.289062 134.164062 546.59375 134.15625 548.898438 134.140625 C 551.132812 134.128906 553.363281 134.121094 555.59375 134.117188 C 556.4375 134.117188 557.28125 134.109375 558.125 134.105469 C 570.539062 134.007812 582.863281 136.398438 593.769531 142.574219 C 602.75 148.148438 611.878906 155.375 617.421875 164.515625 C 620.398438 170.101562 621.675781 176.0625 622.132812 182.332031 L 622.28125 184.296875 C 622.761719 191.949219 622.765625 199.617188 622.785156 207.28125 L 622.792969 209.25 C 622.859375 225.8125 620.8125 240.292969 615.628906 255.992188 L 615.191406 257.320312 C 610.765625 270.699219 610.765625 270.699219 608.273438 273.644531 C 607.320312 274.4375 607.320312 274.4375 605.332031 275.28125 C 603.035156 275.660156 603.035156 275.660156 600.738281 275.050781 C 598.75 273.824219 598.75 273.824219 597.5625 272.21875 C 596.734375 269.59375 596.601562 267.351562 596.910156 264.640625 C 597.605469 261.792969 598.460938 259.011719 599.355469 256.21875 C 599.789062 254.867188 600.210938 253.507812 600.632812 252.152344 C 601.183594 250.371094 601.738281 248.59375 602.292969 246.816406 C 607.234375 230.992188 608.214844 215.628906 607.933594 199.132812 L 607.902344 197.074219 C 607.859375 194.890625 607.804688 192.707031 607.742188 190.523438 L 607.703125 188.472656 C 607.503906 182.507812 606.679688 176.648438 603.53125 171.464844 C 598.777344 163.875 592.546875 159.066406 584.75 154.882812 C 576.3125 150.53125 567.6875 148.824219 558.222656 148.847656 L 556.433594 148.84375 C 555.183594 148.84375 553.9375 148.84375 552.6875 148.847656 C 550.820312 148.851562 548.949219 148.847656 547.082031 148.84375 C 539.585938 148.839844 532.132812 149.058594 524.648438 149.539062 C 523.621094 154.640625 522.601562 159.742188 521.585938 164.847656 L 521.121094 167.1875 C 518.457031 180.609375 516.195312 194.050781 514.234375 207.59375 L 513.78125 210.726562 L 513.550781 212.308594 C 511.488281 226.511719 509.25 240.6875 506.890625 254.847656 L 506.644531 256.328125 C 506.183594 259.078125 505.707031 261.824219 505.207031 264.566406 L 504.882812 266.445312 C 504.4375 268.789062 504.089844 270.402344 502.6875 272.355469 C 501.378906 273.214844 501.378906 273.214844 500.042969 273.539062 C 497.632812 273.503906 496.199219 273.402344 494.066406 272.179688 C 492.726562 270.671875 492.210938 269.605469 491.582031 267.703125 C 490.945312 261.777344 492.066406 255.730469 492.882812 249.867188 L 493.292969 246.8125 C 493.664062 244.105469 494.035156 241.398438 494.410156 238.691406 C 494.644531 237.007812 494.875 235.320312 495.105469 233.636719 C 503.539062 172.273438 503.539062 172.273438 508.726562 152.601562 L 506.46875 153.121094 C 503.476562 153.804688 500.484375 154.480469 497.488281 155.15625 C 495.910156 155.515625 494.332031 155.875 492.753906 156.238281 C 490.554688 156.742188 488.355469 157.242188 486.15625 157.738281 C 485.285156 157.933594 484.414062 158.132812 483.542969 158.335938 C 482.308594 158.625 481.070312 158.902344 479.832031 159.175781 L 477.660156 159.671875 C 475.570312 159.960938 474.023438 159.847656 471.984375 159.335938 C 470.914062 158.417969 470.914062 158.417969 470.148438 156.886719 C 469.332031 154.425781 468.789062 152.238281 469.191406 149.65625 C 470.269531 148.144531 471.402344 147.382812 473.015625 146.492188 C 476.03125 145.160156 479.269531 144.53125 482.472656 143.800781 L 484.804688 143.253906 C 507.730469 137.90625 507.730469 137.90625 511.789062 137.90625 C 511.851562 137.296875 511.910156 136.683594 511.972656 136.054688 C 512.707031 129.074219 513.972656 122.273438 515.425781 115.40625 L 516.070312 112.300781 C 516.582031 109.847656 517.101562 107.398438 517.628906 104.949219 C 517.8125 104.089844 517.996094 103.230469 518.175781 102.371094 C 518.40625 101.261719 518.648438 100.15625 518.890625 99.046875 L 519.28125 97.214844 C 519.757812 95.640625 520.292969 94.640625 521.320312 93.367188 C 523.472656 91.378906 524.753906 91.195312 527.691406 91.246094 M 748.625 92.4375 C 750.007812 92.601562 750.007812 92.601562 751.804688 93.480469 C 753.25 95.273438 753.847656 96.5625 754.214844 98.824219 C 754.308594 100.859375 753.976562 102.535156 753.527344 104.519531 L 753.007812 106.8125 C 752.160156 110.375 751.261719 113.925781 750.351562 117.472656 C 748.589844 124.457031 746.972656 131.425781 745.722656 138.519531 L 745.433594 140.113281 C 742.980469 153.921875 741.730469 167.917969 740.398438 181.871094 C 740.210938 183.785156 740.023438 185.695312 739.835938 187.609375 C 738.363281 202.5625 737.527344 217.429688 737.492188 232.460938 L 737.480469 234.59375 C 737.453125 242.738281 737.84375 250.546875 739.378906 258.550781 C 739.710938 260.371094 739.960938 262.195312 740.210938 264.03125 C 742.164062 263.484375 744.113281 262.933594 746.066406 262.382812 L 747.691406 261.929688 C 750.945312 261.007812 754.175781 259.996094 757.378906 258.90625 C 762.792969 257.074219 768.273438 255.507812 773.777344 253.964844 L 775.347656 253.523438 C 781.941406 251.675781 788.542969 249.878906 795.207031 248.300781 L 797.074219 247.851562 C 800.730469 247.019531 804.429688 246.378906 808.183594 246.886719 C 809.714844 248.109375 809.714844 248.109375 810.632812 249.949219 C 811.257812 251.574219 811.773438 253.101562 811.859375 254.84375 C 811.488281 256.371094 811.488281 256.371094 810.632812 257.90625 C 809.015625 258.671875 809.015625 258.671875 806.804688 259.269531 C 805.910156 259.519531 805.015625 259.777344 804.121094 260.035156 L 802.5625 260.46875 C 799.097656 261.46875 795.664062 262.589844 792.222656 263.683594 C 790.621094 264.1875 789.015625 264.691406 787.414062 265.191406 C 784.945312 265.964844 782.476562 266.742188 780.011719 267.523438 C 745.1875 278.535156 745.1875 278.535156 734.085938 278.109375 C 732.023438 277.4375 731.261719 277.140625 729.800781 275.660156 C 724.925781 268.261719 723.164062 258.050781 722.449219 249.335938 C 722.351562 247.132812 722.320312 244.933594 722.304688 242.726562 L 722.285156 240.800781 C 722.269531 238.707031 722.261719 236.617188 722.257812 234.527344 L 722.253906 232.335938 C 722.25 215.882812 723.394531 199.585938 724.898438 183.214844 L 725.195312 179.914062 C 727.472656 154.949219 731.085938 130.15625 737.523438 105.902344 C 737.828125 104.769531 738.121094 103.628906 738.417969 102.492188 C 739.96875 96.882812 739.96875 96.882812 741.8125 94.597656 C 744.074219 92.453125 745.601562 92.378906 748.625 92.4375 M 386.863281 103.621094 C 388.59375 104.960938 389.566406 105.964844 390.539062 107.90625 C 390.917969 111.816406 390.230469 115.242188 389.101562 118.960938 L 388.648438 120.53125 C 388.328125 121.640625 388.003906 122.75 387.675781 123.859375 C 386.8125 126.8125 385.96875 129.769531 385.136719 132.730469 L 384.625 134.539062 C 382.160156 143.335938 380.132812 152.226562 378.289062 161.171875 L 378.03125 162.417969 C 372.300781 190.429688 365.753906 223.511719 371.554688 251.785156 C 376.039062 251.460938 380.28125 250.679688 384.644531 249.605469 L 386.632812 249.121094 C 391.710938 247.867188 396.730469 246.441406 401.75 244.972656 C 406.785156 243.507812 411.804688 242.121094 416.945312 241.070312 L 418.359375 240.773438 C 421.664062 240.140625 425.164062 239.640625 428.503906 240.152344 C 429.824219 241.046875 430.640625 241.832031 431.570312 243.125 C 432.449219 245.019531 432.542969 246.648438 432.488281 248.714844 C 432.179688 249.949219 432.179688 249.949219 431.378906 250.890625 C 429.652344 252.378906 427.472656 252.800781 425.320312 253.417969 L 423.800781 253.871094 C 422.167969 254.355469 420.535156 254.828125 418.898438 255.304688 L 415.515625 256.296875 C 413.832031 256.792969 412.152344 257.285156 410.46875 257.773438 C 407.492188 258.640625 404.519531 259.535156 401.558594 260.457031 C 395.152344 262.445312 388.753906 264 382.15625 265.214844 L 380.050781 265.609375 C 375.398438 266.410156 370.757812 266.886719 366.042969 266.476562 C 363.878906 265.453125 362.75 264.421875 361.105469 262.726562 C 356.335938 255.65625 355.230469 248.25 354.613281 239.898438 C 353.054688 212.605469 358.273438 184.167969 363.59375 157.5 L 364.082031 155.011719 C 366.199219 144.382812 368.867188 133.933594 371.707031 123.480469 L 372.191406 121.683594 C 372.65625 119.984375 373.121094 118.285156 373.589844 116.589844 L 374.007812 115.058594 C 376.226562 107.132812 376.226562 107.132812 378.902344 104.234375 C 381.558594 103.347656 384.089844 103.214844 386.863281 103.621094 M 204.257812 101.257812 C 205.988281 101.328125 207.582031 101.410156 209.269531 101.785156 C 211.046875 103.132812 211.960938 104.101562 212.945312 106.070312 C 213.371094 111.105469 212.007812 115.328125 210.457031 120.074219 L 209.644531 122.617188 C 206.367188 132.816406 202.78125 142.910156 199.214844 153.011719 C 197.964844 156.554688 196.738281 160.105469 195.53125 163.660156 C 189.859375 180.296875 183.59375 196.738281 177.082031 213.058594 L 176.480469 214.578125 C 174.207031 220.285156 171.820312 225.898438 169.167969 231.4375 C 168.289062 233.316406 167.484375 235.207031 166.710938 237.128906 C 165.332031 240.496094 163.730469 243.71875 162.078125 246.960938 C 160.996094 249.105469 159.980469 251.28125 158.96875 253.460938 C 156.730469 258.28125 154.351562 263.03125 151.820312 267.703125 L 150.976562 269.289062 L 150.164062 270.765625 L 149.453125 272.066406 C 148.511719 273.398438 147.5625 274.167969 146.195312 275.050781 C 144.433594 275.585938 144.433594 275.585938 142.519531 275.660156 C 140.1875 274.867188 139.027344 274.027344 137.390625 272.179688 C 136.402344 270.164062 136.175781 268.808594 136.226562 266.578125 C 136.523438 264.265625 137.515625 262.371094 138.578125 260.316406 C 139.03125 259.402344 139.484375 258.488281 139.933594 257.570312 L 140.628906 256.191406 C 141.632812 254.167969 142.574219 252.117188 143.515625 250.0625 C 144.726562 247.445312 145.988281 244.847656 147.296875 242.277344 C 149.4375 238.011719 151.371094 233.660156 153.277344 229.285156 L 153.828125 228.015625 C 161.503906 210.417969 168.546875 192.554688 175.121094 174.523438 C 175.722656 172.875 176.335938 171.230469 176.957031 169.589844 C 179.578125 162.707031 182.003906 155.761719 184.410156 148.800781 C 185.132812 146.707031 185.859375 144.617188 186.585938 142.527344 C 188.867188 135.9375 191.117188 129.339844 193.257812 122.707031 L 193.804688 121.027344 C 194.636719 118.464844 195.460938 115.894531 196.265625 113.320312 C 198.59375 106.019531 198.59375 106.019531 200.703125 103.316406 C 202.535156 101.785156 202.535156 101.785156 204.257812 101.257812 M 296.027344 115.6875 C 297.453125 115.867188 297.453125 115.867188 299.597656 117.015625 C 301.128906 118.316406 301.128906 118.316406 301.742188 119.539062 C 302.515625 124.867188 300.792969 130.058594 299.4375 135.152344 C 298.714844 137.878906 298.023438 140.617188 297.328125 143.351562 L 296.890625 145.0625 C 290.398438 170.683594 285.589844 196.808594 282.144531 223.007812 L 281.972656 224.3125 C 280.898438 232.527344 279.839844 240.742188 279.359375 249.015625 L 279.285156 250.273438 C 279.167969 252.234375 279.074219 254.199219 278.996094 256.164062 L 278.890625 258.25 L 278.820312 260.074219 L 278.472656 261.582031 C 277.0625 262.925781 276.042969 263.410156 274.183594 264.03125 C 271.9375 264.195312 270.371094 264.253906 268.316406 263.285156 C 266.835938 262.191406 266.835938 262.191406 266 260.839844 C 263.097656 252.878906 264.496094 244.574219 265.570312 236.363281 L 265.769531 234.816406 C 269.867188 203.046875 274.941406 171.382812 282.335938 140.203125 L 282.710938 138.628906 C 283.9375 133.472656 285.253906 128.34375 286.765625 123.261719 L 287.109375 122.039062 C 287.675781 120.207031 288.257812 118.941406 289.511719 117.46875 C 291.671875 115.695312 293.308594 115.664062 296.027344 115.6875 M 610.382812 96.886719 C 612.398438 98.171875 613.34375 99.183594 614.671875 101.171875 C 614.945312 102.527344 615.167969 103.894531 615.359375 105.265625 L 615.671875 107.457031 L 615.894531 109.132812 L 617.261719 109.066406 C 622.140625 108.929688 622.140625 108.929688 624.507812 109.898438 C 625.730469 111.003906 626.335938 111.882812 626.917969 113.417969 C 628.867188 112.320312 630.582031 111.101562 632.316406 109.707031 C 634.800781 107.828125 636.683594 107.125 639.777344 106.683594 C 642.292969 106.769531 643.792969 107.152344 646.015625 108.328125 C 647.90625 109.882812 649.007812 111.277344 650.1875 113.417969 C 650.648438 114.871094 650.648438 114.871094 650.800781 116.480469 L 651.03125 118.621094 C 650.949219 122.46875 649.460938 125.945312 647.738281 129.335938 C 646.074219 131.753906 644.222656 133.917969 642.226562 136.070312 L 641.027344 137.398438 C 639.613281 138.894531 638.230469 140.160156 636.523438 141.3125 C 633.746094 141.765625 631.410156 141.242188 628.753906 140.355469 C 623.574219 138.007812 619.566406 134.625 615.527344 130.71875 C 614.191406 129.328125 614.191406 129.328125 612.832031 128.722656 C 612.164062 127.605469 611.527344 126.472656 610.917969 125.316406 L 609.917969 123.441406 L 609.160156 121.988281 L 607.933594 121.988281 C 607.386719 122.632812 606.863281 123.296875 606.363281 123.980469 C 604.566406 126.109375 602.871094 127.390625 600.265625 128.394531 C 597.949219 128.894531 596.070312 128.632812 593.785156 128.078125 C 588.382812 126.308594 584.179688 123.863281 580.3125 119.671875 L 579.152344 118.316406 L 578.21875 117.246094 C 575.910156 114.328125 574.585938 110.871094 573.640625 107.292969 C 573.5 105.671875 573.5 105.671875 573.640625 104.234375 L 574.863281 102.398438 L 576.089844 102.398438 L 576.472656 101.363281 C 577.378906 99.84375 578.3125 98.597656 579.703125 97.488281 C 582.054688 96.386719 584.441406 96.5625 586.992188 96.660156 C 589.566406 96.957031 591.492188 97.652344 593.847656 98.722656 C 595.027344 99.207031 595.027344 99.207031 596.296875 99.335938 C 597.667969 98.902344 597.667969 98.902344 599.015625 98.1875 C 602.933594 96.347656 606.121094 95.875 610.382812 96.886719 M 60.277344 111.308594 C 61.6875 111.582031 61.6875 111.582031 62.691406 112.234375 C 65.230469 115.015625 66.945312 118.492188 68.761719 121.765625 C 70.210938 124.371094 71.71875 126.941406 73.226562 129.511719 C 77.753906 137.222656 82.179688 144.992188 86.503906 152.820312 C 87.242188 154.144531 87.992188 155.460938 88.753906 156.773438 C 91.53125 161.703125 93.78125 166.851562 96 172.050781 C 96.367188 172.902344 96.730469 173.75 97.097656 174.601562 C 100.800781 183.1875 100.800781 183.1875 100.878906 188.109375 C 100.265625 189.871094 100.265625 189.871094 99.042969 191.171875 C 96.777344 192.476562 95.1875 192.992188 92.574219 193.085938 C 90.46875 192.398438 90.46875 192.398438 88.632812 190.828125 C 86.613281 188.222656 85.445312 185.203125 84.1875 182.183594 C 82.832031 178.953125 81.257812 175.996094 79.472656 172.976562 C 77.941406 170.371094 76.5625 167.714844 75.234375 165 C 73.503906 161.480469 71.679688 158.011719 69.761719 154.589844 L 68.984375 153.199219 C 67.917969 151.292969 66.84375 149.386719 65.765625 147.484375 C 62.265625 141.332031 59.023438 135.113281 56.058594 128.683594 L 55.164062 126.753906 L 54.351562 124.953125 L 53.625 123.351562 C 53.113281 121.988281 53.113281 121.988281 53.113281 120.152344 L 51.886719 120.152344 C 51.136719 116.988281 51.136719 116.988281 51.277344 115.253906 C 53.566406 112.179688 56.617188 111.226562 60.277344 111.308594 " fill-opacity="1" fill-rule="nonzero"/><path fill="#5784d7" d="M 1015.171875 74.234375 C 1014.808594 75.351562 1014.808594 75.351562 1013.945312 76.683594 C 1012.144531 77.574219 1012.144531 77.574219 1009.925781 78.40625 C 1005.496094 80.179688 1001.847656 82.207031 998.796875 85.945312 C 996.21875 89.625 994.097656 93.707031 993.125 98.109375 C 992.988281 100.296875 992.882812 102.480469 992.808594 104.671875 C 992.6875 107.222656 992.433594 109.246094 991.289062 111.582031 L 993.125 112.191406 C 993.175781 113.480469 993.210938 114.769531 993.238281 116.058594 L 993.304688 118.230469 C 993.125 120.152344 993.125 120.152344 992.351562 121.289062 C 990.527344 122.488281 988.824219 122.601562 986.652344 122.789062 C 985.746094 122.839844 984.839844 122.890625 983.933594 122.933594 L 982.402344 123.011719 C 975.761719 123.316406 969.117188 123.335938 962.472656 123.371094 C 960.0625 123.386719 957.648438 123.402344 955.234375 123.417969 C 949.683594 123.457031 944.132812 123.492188 938.582031 123.527344 C 933.472656 123.558594 928.367188 123.589844 923.257812 123.628906 C 920.484375 123.648438 917.707031 123.664062 914.9375 123.679688 L 910.554688 123.710938 L 908.589844 123.71875 C 899.539062 123.625 899.539062 123.625 891.128906 126.496094 C 886.453125 129.632812 882.4375 133.480469 879.832031 138.519531 C 878.007812 143.003906 878.105469 147.84375 878.609375 152.601562 C 879.519531 157.578125 881.222656 162.566406 884.234375 166.667969 C 886.042969 168.683594 888.058594 170.4375 890.136719 172.167969 C 891.410156 173.363281 892.046875 174.265625 892.691406 175.867188 C 889.910156 175.386719 888.222656 173.820312 886.066406 172.09375 C 881.699219 168.414062 878.769531 164.664062 876.769531 159.335938 C 874.753906 153.679688 874.976562 146.828125 875.808594 140.945312 C 877.074219 136.023438 880.242188 132.003906 883.621094 128.300781 C 887.007812 125.078125 891.234375 122.75 895.601562 121.148438 C 899.496094 120.398438 903.335938 120.058594 907.296875 119.96875 L 908.691406 119.933594 C 910.222656 119.898438 911.75 119.863281 913.28125 119.828125 L 914.914062 119.792969 C 929.460938 119.457031 944.011719 119.339844 958.5625 119.214844 C 962.203125 119.183594 965.839844 119.148438 969.480469 119.117188 C 976.542969 119.050781 983.609375 118.988281 990.675781 118.925781 L 990.636719 117.085938 C 990.589844 114.792969 990.5625 112.503906 990.539062 110.210938 C 990.527344 109.226562 990.511719 108.238281 990.488281 107.253906 C 990.328125 99.601562 991.0625 93.148438 994.808594 86.289062 C 997.460938 82.207031 1000.453125 79.019531 1004.796875 76.757812 C 1008.199219 75.210938 1011.367188 74.003906 1015.171875 74.234375 " fill-opacity="1" fill-rule="nonzero"/><path fill="#5383dd" d="M 207.28125 80.203125 L 208.640625 80.183594 C 211.164062 80.199219 213.128906 80.457031 215.394531 81.582031 C 214.730469 82.53125 214.730469 82.53125 213.558594 83.417969 C 211.695312 83.308594 211.695312 83.308594 209.5 82.882812 C 205.121094 82.167969 201.914062 82.011719 197.699219 83.382812 C 193.453125 85 189.859375 86.957031 186.613281 90.152344 C 182.492188 95.339844 180.648438 101.199219 178.691406 107.410156 C 178.371094 108.398438 178.050781 109.386719 177.726562 110.378906 C 177.09375 112.335938 176.460938 114.292969 175.835938 116.253906 C 174.726562 119.703125 173.601562 123.144531 172.453125 126.582031 L 171.875 128.316406 C 169.597656 135.121094 167.15625 141.867188 164.722656 148.621094 C 163.992188 150.664062 163.265625 152.710938 162.546875 154.757812 C 155.875 173.714844 148.644531 192.472656 140.964844 211.046875 C 140.097656 213.15625 139.230469 215.269531 138.367188 217.382812 C 136.035156 223.074219 133.664062 228.679688 130.832031 234.140625 C 128.878906 237.96875 127.132812 241.90625 125.375 245.824219 C 122.960938 251.203125 122.960938 251.203125 121.675781 253.347656 C 119.171875 257.726562 118.878906 261.792969 118.828125 266.746094 C 118.910156 272.648438 119.394531 277.765625 122.3125 283.007812 C 124.855469 287.148438 127.921875 290.039062 132.089844 292.515625 C 135.238281 294.042969 138.523438 295 141.910156 295.867188 L 141.910156 296.476562 C 139.824219 297.027344 137.941406 297.242188 135.785156 297.089844 C 133.082031 296.011719 130.800781 294.484375 128.4375 292.804688 L 126.625 291.527344 C 122.554688 288.441406 119.679688 285.148438 117.414062 280.558594 C 115.472656 275.640625 114.796875 270.726562 115.039062 265.445312 L 115.121094 263.066406 C 115.839844 256.925781 119.535156 251.0625 122.234375 245.605469 C 134.875 219.96875 145.539062 193.5 155.382812 166.683594 L 155.902344 165.261719 C 160.023438 154.035156 164.023438 142.765625 167.972656 131.480469 L 168.558594 129.808594 C 170.628906 123.882812 172.664062 117.949219 174.613281 111.980469 L 175.113281 110.457031 C 175.886719 108.09375 176.65625 105.730469 177.40625 103.363281 C 179.367188 97.292969 181.460938 91.4375 186.078125 86.859375 C 189.199219 84.296875 192.601562 82.851562 196.410156 81.582031 L 197.738281 81.125 C 200.871094 80.246094 204.046875 80.234375 207.28125 80.203125 " fill-opacity="1" fill-rule="nonzero"/><path fill="#4e80d9" d="M 305.1875 95.664062 C 306.089844 96.046875 306.980469 96.457031 307.863281 96.886719 L 305.414062 99.335938 L 303.386719 98.457031 C 298.582031 96.703125 294.207031 96.675781 289.1875 97.539062 C 284.277344 98.648438 280.214844 100.285156 276.441406 103.667969 C 272.050781 108.292969 270.242188 113.757812 268.558594 119.808594 L 268.015625 121.738281 C 265.9375 129.414062 264.335938 137.203125 262.722656 144.992188 C 261.402344 151.34375 259.941406 157.660156 258.339844 163.941406 C 257.492188 167.277344 256.726562 170.628906 256.003906 173.992188 L 255.617188 175.78125 C 254.820312 179.523438 254.132812 183.25 253.605469 187.039062 C 253.367188 188.683594 253.070312 190.304688 252.75 191.9375 C 252.171875 195.054688 251.804688 198.175781 251.457031 201.324219 C 251.0625 204.792969 250.566406 208.238281 250.046875 211.691406 C 245.203125 240.679688 245.203125 240.679688 249.804688 269.195312 C 251.59375 273.191406 254.328125 276.085938 257.445312 279.097656 C 258.410156 280.101562 258.921875 281.132812 259.488281 282.398438 C 255.648438 281.089844 253.097656 278.515625 250.300781 275.660156 C 246.730469 271.449219 245.007812 266.542969 243.820312 261.199219 C 238.269531 216.390625 253.839844 160.398438 266.144531 117.472656 L 266.609375 115.847656 C 268.191406 110.628906 270.433594 105.691406 274.175781 101.671875 C 278.277344 97.96875 283.117188 96.03125 288.40625 94.710938 C 293.882812 93.832031 299.953125 93.734375 305.1875 95.664062 " fill-opacity="1" fill-rule="nonzero"/><path fill="#4b7fdc" d="M 515.425781 72.242188 L 516.6875 72.398438 L 514.238281 73.621094 L 514.238281 74.847656 C 513.222656 75.574219 512.191406 76.273438 511.140625 76.949219 C 507.410156 79.625 505.160156 82.324219 503.214844 86.480469 C 501.988281 89.683594 501.082031 92.972656 500.152344 96.273438 C 499.785156 97.371094 499.414062 98.46875 499.042969 99.566406 C 498.457031 101.539062 498.261719 103.183594 498.339844 105.234375 C 498.378906 108.566406 497.882812 111.65625 497.207031 114.910156 L 496.898438 116.550781 L 496.582031 118.121094 L 496.300781 119.527344 C 495.867188 120.765625 495.867188 120.765625 495.0625 121.71875 C 493.316406 123.210938 491.082031 123.421875 488.886719 123.878906 L 487.339844 124.21875 C 485.164062 124.699219 482.984375 125.160156 480.804688 125.625 C 468.1875 128.253906 468.1875 128.253906 457.289062 134.847656 C 454.542969 138.027344 452.007812 141.6875 451.164062 145.867188 C 451.035156 147.917969 451.050781 149.9375 451.164062 151.988281 L 449.9375 151.988281 L 449.9375 153.214844 L 451.164062 153.214844 L 451.300781 154.828125 C 451.902344 160.265625 453.21875 164.460938 456.0625 169.132812 L 456.746094 170.273438 C 459.335938 173.921875 464.023438 175.578125 467.910156 177.484375 L 469.917969 178.46875 C 470.53125 178.761719 471.144531 179.054688 471.78125 179.359375 L 473.210938 180.152344 L 473.820312 181.375 C 471.816406 181.828125 470.335938 182.101562 468.308594 181.988281 C 466.046875 181.066406 464.15625 179.75 462.1875 178.316406 L 460.722656 177.285156 C 455.777344 173.640625 452.453125 169.8125 449.964844 164.175781 C 447.800781 158.144531 447.542969 152.214844 448.101562 145.867188 C 448.914062 141.851562 450.601562 138.558594 453.191406 135.402344 L 454.226562 134.234375 L 455.335938 132.953125 C 458.675781 129.34375 462.339844 127.289062 466.980469 125.667969 C 468.820312 125.109375 470.664062 124.589844 472.519531 124.09375 L 474.519531 123.542969 C 480.5625 121.917969 486.652344 120.671875 492.804688 119.539062 L 493.207031 117.578125 C 493.710938 115.121094 494.21875 112.664062 494.730469 110.203125 C 494.949219 109.152344 495.164062 108.097656 495.378906 107.046875 C 496.539062 101.386719 497.773438 95.765625 499.292969 90.191406 L 499.660156 88.820312 C 501.035156 83.929688 503.421875 80.738281 506.851562 77.101562 C 509.375 74.691406 511.820312 72.550781 515.425781 72.242188 " fill-opacity="1" fill-rule="nonzero"/><path fill="#285bcc" d="M 51.277344 121.375 C 52.480469 121.460938 52.480469 121.460938 53.726562 121.988281 C 54.535156 123.25 54.535156 123.25 55.242188 124.917969 L 56.054688 126.769531 L 56.902344 128.761719 C 59.414062 134.464844 62.125 139.898438 65.277344 145.269531 C 68.445312 150.773438 71.339844 156.433594 74.238281 162.078125 C 75.695312 164.886719 77.179688 167.632812 78.84375 170.324219 C 80.921875 173.734375 82.558594 177.3125 84.191406 180.957031 L 85.082031 182.917969 C 86.320312 185.652344 87.535156 188.378906 88.632812 191.171875 L 87.40625 192.398438 C 86.191406 192.285156 86.191406 192.285156 84.957031 191.785156 C 81.011719 186.414062 78.300781 179.945312 75.527344 173.90625 C 72.253906 166.824219 68.625 160.078125 64.597656 153.40625 C 61.527344 148.316406 58.632812 143.234375 56.113281 137.851562 C 55.488281 136.539062 54.855469 135.230469 54.207031 133.929688 C 53.753906 133 53.296875 132.066406 52.84375 131.132812 L 52.207031 129.851562 C 50.941406 127.199219 50.320312 124.917969 50.050781 121.988281 Z M 51.277344 121.375 " fill-opacity="1" fill-rule="nonzero"/><path fill="#4b7ed5" d="M 932.5 185.050781 L 933.722656 185.664062 C 932.882812 186.582031 932.882812 186.582031 931.886719 187.5 L 930.660156 187.5 L 930.175781 188.628906 C 929.375 190.054688 928.78125 190.578125 927.421875 191.449219 L 926.15625 192.277344 L 924.765625 193.164062 C 923.765625 193.816406 922.761719 194.46875 921.761719 195.121094 L 920.128906 196.179688 C 917.066406 198.171875 914.027344 200.203125 910.988281 202.230469 L 909.089844 203.496094 C 907.296875 204.695312 905.507812 205.890625 903.714844 207.089844 L 902.214844 208.09375 C 891.25 215.109375 891.25 215.109375 882.894531 224.847656 C 881.214844 228.335938 880.738281 231.480469 880.789062 235.332031 L 880.804688 236.867188 C 880.96875 242.941406 882.375 248.25 885.382812 253.582031 C 887.453125 256.652344 889.894531 258.273438 893.148438 259.96875 L 894.53125 260.96875 C 894.996094 262.542969 894.996094 262.542969 895.144531 264.03125 L 895.753906 265.253906 C 890.828125 263.558594 886.886719 259.613281 883.277344 255.957031 C 880.414062 252.609375 879.113281 248.644531 877.996094 244.4375 C 876.914062 238.132812 876.882812 232.246094 878.984375 226.152344 C 881.390625 220.699219 885.019531 216.910156 889.746094 213.394531 C 894.320312 210.117188 899.082031 207.101562 903.792969 204.03125 C 905.003906 203.234375 906.21875 202.441406 907.429688 201.644531 C 909.226562 200.46875 911.023438 199.289062 912.824219 198.109375 C 917.507812 195.042969 922.179688 191.949219 926.832031 188.839844 L 928.640625 187.632812 C 929.925781 186.773438 931.210938 185.910156 932.5 185.050781 " fill-opacity="1" fill-rule="nonzero"/><path fill="#265bdc" d="M 62.910156 110.96875 C 64.015625 111.121094 64.015625 111.121094 65.359375 111.582031 C 68.988281 115.480469 71.46875 120.726562 74.136719 125.316406 C 75.761719 128.109375 77.445312 130.867188 79.140625 133.621094 C 88.222656 148.429688 88.222656 148.429688 91.871094 155.96875 C 92.59375 157.449219 93.339844 158.917969 94.117188 160.367188 C 97.589844 166.917969 99.925781 173.691406 102.105469 180.765625 L 99.652344 181.375 C 97.890625 178.078125 96.351562 174.714844 94.9375 171.253906 C 92.210938 164.59375 89.042969 158.285156 85.570312 151.988281 L 84.546875 150.136719 C 80.785156 143.324219 76.980469 136.542969 72.933594 129.894531 C 70.640625 126.125 68.417969 122.3125 66.179688 118.511719 L 65.191406 116.832031 L 64.304688 115.328125 C 63.660156 114.269531 62.992188 113.222656 62.296875 112.191406 Z M 62.910156 110.96875 " fill-opacity="1" fill-rule="nonzero"/><path fill="#4d7fe0" d="M 384.300781 81.964844 L 385.925781 81.964844 C 390.003906 82.039062 393.691406 82.546875 397.273438 84.640625 C 398.363281 85.644531 398.363281 85.644531 399.109375 86.480469 L 397.886719 86.480469 L 397.273438 87.703125 L 396.269531 87.152344 C 394.632812 86.390625 393.050781 85.933594 391.300781 85.484375 C 390.699219 85.324219 390.097656 85.164062 389.476562 85 C 385.308594 84.253906 381.714844 84.648438 377.675781 85.714844 L 376.378906 86.050781 C 371.878906 87.265625 368.113281 88.875 364.667969 92.0625 C 360.785156 96.214844 358.933594 101.558594 357.238281 106.875 L 356.535156 109.039062 C 352.855469 120.515625 349.746094 132.15625 347.050781 143.902344 C 346.316406 147.082031 345.480469 150.15625 344.375 153.226562 C 343.980469 154.484375 343.792969 155.65625 343.652344 156.964844 C 343.246094 160.566406 342.101562 163.875 340.933594 167.292969 L 340.320312 166.070312 C 340.488281 164.734375 340.714844 163.402344 340.960938 162.078125 L 341.199219 160.820312 C 341.460938 159.433594 341.734375 158.042969 342.003906 156.65625 L 342.292969 155.195312 C 345.554688 138.613281 349.644531 122.15625 354.597656 105.992188 L 354.957031 104.792969 C 356.839844 98.582031 359.273438 92.597656 364.09375 88.070312 C 370.074219 83.6875 377.015625 81.949219 384.296875 81.964844 " fill-opacity="1" fill-rule="nonzero"/><path fill="#4d7ed3" d="M 337.871094 181.375 L 338.484375 181.375 C 338.5 182.664062 338.511719 183.953125 338.523438 185.242188 L 338.542969 187.414062 C 338.484375 189.335938 338.484375 189.335938 337.871094 191.171875 C 337.617188 193.960938 337.488281 196.753906 337.339844 199.546875 C 337.261719 200.902344 337.175781 202.253906 337.085938 203.605469 C 336.125 218.804688 336.152344 234.199219 337.871094 249.335938 L 338.050781 250.972656 C 338.996094 259.222656 340.945312 266.152344 345.679688 273.136719 C 347.839844 275.984375 350.296875 278.027344 353.238281 280.039062 L 354.40625 281.171875 C 354.578125 282.84375 354.578125 282.84375 354.40625 284.234375 C 349.519531 281.789062 346.199219 278.445312 343.101562 273.949219 C 336.558594 264.019531 334.472656 253.765625 333.777344 242.066406 C 333.691406 240.203125 333.628906 238.339844 333.585938 236.476562 L 333.546875 235.023438 C 333.117188 217.273438 334.824219 198.878906 337.871094 181.375 " fill-opacity="1" fill-rule="nonzero"/><path fill="#497cd5" d="M 702.242188 226.070312 L 703.464844 226.070312 L 703.558594 227.441406 C 704.179688 236.507812 704.835938 245.566406 705.769531 254.605469 C 705.914062 256.058594 706.039062 257.511719 706.15625 258.964844 C 707.039062 269.046875 709.796875 278.710938 715.636719 287.109375 C 718.417969 290.507812 721.46875 292.378906 725.511719 294.03125 L 724.289062 297.089844 C 719.871094 295.558594 716.34375 292.417969 713.25 288.976562 C 708.246094 282.289062 705.351562 274.0625 703.726562 265.941406 C 703.554688 265.082031 703.371094 264.226562 703.179688 263.375 C 700.476562 251.210938 701.753906 238.421875 702.242188 226.070312 " fill-opacity="1" fill-rule="nonzero"/><path fill="#295bcc" d="M 192.125 118.925781 L 194.574219 119.539062 C 193.078125 125.675781 190.988281 131.617188 188.941406 137.585938 C 188.34375 139.335938 187.75 141.085938 187.15625 142.835938 C 186.175781 145.714844 185.179688 148.589844 184.167969 151.457031 C 183.746094 152.660156 183.328125 153.859375 182.914062 155.0625 C 182.285156 156.871094 181.644531 158.671875 180.992188 160.46875 L 180.417969 162.148438 C 179.910156 163.539062 179.425781 164.808594 178.652344 166.070312 C 176.972656 166.726562 176.972656 166.726562 175.589844 166.683594 L 175.835938 165.628906 C 176.5 162.71875 177.050781 159.84375 177.425781 156.886719 L 178.652344 156.886719 L 178.8125 155.671875 C 179.398438 151.863281 180.433594 148.664062 181.984375 145.152344 C 184.066406 140.230469 185.566406 135.050781 187.226562 129.976562 C 188.234375 126.902344 189.261719 123.832031 190.289062 120.765625 L 191.511719 120.765625 Z M 192.125 118.925781 " fill-opacity="1" fill-rule="nonzero"/><path fill="#5887e4" d="M 456.675781 131.785156 L 457.898438 134.234375 L 457.046875 135.222656 C 454.335938 138.519531 452.210938 141.6875 451.164062 145.867188 C 450.992188 147.929688 451.003906 149.925781 451.164062 151.988281 L 449.9375 151.988281 L 449.9375 153.214844 L 451.164062 153.214844 L 451.300781 154.828125 C 451.902344 160.265625 453.21875 164.460938 456.0625 169.132812 L 456.746094 170.273438 C 459.335938 173.921875 464.023438 175.578125 467.910156 177.484375 L 469.917969 178.46875 C 470.53125 178.761719 471.144531 179.054688 471.78125 179.359375 L 473.210938 180.152344 L 473.820312 181.375 C 471.816406 181.828125 470.335938 182.101562 468.308594 181.988281 C 466.046875 181.066406 464.15625 179.75 462.1875 178.316406 L 460.722656 177.285156 C 455.777344 173.640625 452.453125 169.8125 449.964844 164.175781 C 447.800781 158.144531 447.542969 152.214844 448.101562 145.867188 C 449.027344 141.289062 451.164062 137.714844 454.226562 134.234375 C 455.019531 133.398438 455.824219 132.566406 456.675781 131.785156 " fill-opacity="1" fill-rule="nonzero"/><path fill="#5283df" d="M 305.1875 95.664062 C 306.089844 96.046875 306.980469 96.457031 307.863281 96.886719 L 305.414062 99.335938 L 303.386719 98.457031 C 298.582031 96.703125 294.207031 96.675781 289.1875 97.539062 C 284.277344 98.648438 280.214844 100.285156 276.441406 103.667969 C 271.617188 108.75 270 114.773438 268.214844 121.414062 L 267.628906 123.550781 C 267.15625 125.273438 266.6875 127 266.222656 128.722656 L 263.773438 128.722656 C 264.734375 120.375 267.183594 111.050781 272.050781 104.140625 C 275.003906 100.4375 278.671875 98.046875 283.042969 96.273438 C 289.957031 93.882812 298.222656 93.097656 305.1875 95.664062 " fill-opacity="1" fill-rule="nonzero"/><path fill="#4a7edc" d="M 119.863281 251.171875 L 122.3125 251.171875 C 121.703125 253.097656 121.078125 254.863281 120.144531 256.65625 C 118.78125 259.828125 118.925781 263.117188 118.945312 266.515625 L 118.957031 268.582031 C 119.074219 273.914062 119.675781 278.277344 122.3125 283.007812 C 124.855469 287.148438 127.921875 290.039062 132.089844 292.515625 C 135.238281 294.042969 138.523438 295 141.910156 295.867188 L 141.910156 296.476562 C 139.824219 297.027344 137.941406 297.242188 135.785156 297.089844 C 133.082031 296.011719 130.800781 294.484375 128.4375 292.804688 L 126.625 291.527344 C 122.554688 288.441406 119.679688 285.148438 117.414062 280.558594 C 114.980469 274.394531 114.613281 268.132812 115.367188 261.589844 C 116.011719 257.800781 117.75 254.339844 119.863281 251.171875 " fill-opacity="1" fill-rule="nonzero"/><path fill="#2350ca" d="M 158.441406 210.152344 L 161.503906 210.152344 C 159.964844 215.125 157.925781 219.855469 155.839844 224.617188 L 154.753906 227.109375 C 152.703125 231.8125 150.605469 236.488281 148.398438 241.121094 C 147.667969 242.683594 146.957031 244.257812 146.269531 245.839844 C 143.46875 252.277344 140.378906 258.484375 137.007812 264.640625 L 135.785156 264.640625 C 135.875 259.097656 138.28125 254.742188 140.722656 249.910156 L 141.953125 247.417969 C 142.949219 245.402344 143.957031 243.386719 144.972656 241.375 L 146.195312 241.375 L 146.921875 239.082031 C 148.128906 235.46875 149.609375 231.984375 151.09375 228.480469 C 151.632812 227.210938 152.167969 225.941406 152.703125 224.671875 L 153.46875 222.863281 C 154.082031 221.355469 154.625 219.84375 155.152344 218.304688 L 155.992188 216.273438 L 157.832031 215.660156 L 157.449219 214.285156 C 157.21875 212.601562 157.21875 212.601562 157.792969 211.183594 Z M 158.441406 210.152344 " fill-opacity="1" fill-rule="nonzero"/><path fill="#4d7fd6" d="M 814.078125 226.339844 C 816.855469 227.523438 819.433594 229.039062 822 230.625 L 823.128906 231.3125 C 824.183594 232 824.183594 232 825.941406 233.417969 C 826.800781 235.121094 826.800781 235.121094 827.167969 236.476562 C 826.082031 236.902344 826.082031 236.902344 824.71875 237.089844 C 823.621094 236.320312 823.621094 236.320312 822.5 235.175781 C 819.058594 231.988281 815.289062 229.996094 810.710938 228.941406 C 803.476562 227.835938 796.785156 228.980469 789.699219 230.355469 C 778.777344 232.457031 778.777344 232.457031 773.890625 232.191406 C 775.9375 231.046875 777.953125 230.5 780.226562 229.953125 L 782.539062 229.398438 L 783.742188 229.113281 C 784.933594 228.828125 786.125 228.542969 787.3125 228.253906 C 806.09375 223.757812 806.09375 223.757812 814.078125 226.339844 " fill-opacity="1" fill-rule="nonzero"/><path fill="#265bdd" d="M 593.847656 139.742188 C 598 140.804688 600.925781 143.289062 604.257812 145.867188 L 605.976562 147.175781 C 611.804688 151.765625 616.796875 156.550781 619.785156 163.429688 L 620.183594 164.847656 L 619.570312 166.683594 L 617.730469 166.683594 C 617.007812 165.625 617.007812 165.625 616.238281 164.117188 C 611.261719 155.410156 603.214844 149.183594 594.800781 144.011719 C 593.863281 143.421875 592.929688 142.816406 592.011719 142.191406 L 591.398438 140.96875 C 592.394531 140.28125 592.394531 140.28125 593.847656 139.742188 " fill-opacity="1" fill-rule="nonzero"/><path fill="#4f81d6" d="M 734.085938 74.234375 L 734.699219 76.070312 L 733.507812 76.8125 C 729.644531 79.351562 726.503906 81.753906 724.289062 85.867188 C 719.34375 97.519531 716.957031 110.375 714.21875 122.683594 L 713.863281 124.277344 L 713.554688 125.675781 C 713.265625 126.886719 713.265625 126.886719 712.652344 128.722656 L 710.816406 128.722656 C 712.394531 119.570312 714.34375 110.550781 716.632812 101.554688 L 716.976562 100.183594 C 720.652344 85.542969 720.652344 85.542969 724.898438 80.355469 C 731.164062 74.234375 731.164062 74.234375 734.085938 74.234375 " fill-opacity="1" fill-rule="nonzero"/><path fill="#5a88e4" d="M 932.5 185.050781 L 933.722656 185.664062 C 932.882812 186.582031 932.882812 186.582031 931.886719 187.5 L 930.660156 187.5 L 930.175781 188.628906 C 929.375 190.054688 928.78125 190.578125 927.421875 191.449219 L 926.15625 192.277344 L 924.765625 193.164062 C 923.765625 193.816406 922.761719 194.46875 921.761719 195.121094 L 920.128906 196.179688 C 917.066406 198.171875 914.027344 200.203125 910.988281 202.230469 L 909.089844 203.496094 C 907.296875 204.695312 905.507812 205.890625 903.714844 207.089844 L 902.214844 208.09375 C 897.410156 211.316406 892.824219 214.578125 888.492188 218.425781 L 887.183594 219.335938 L 885.34375 218.722656 L 883.507812 219.949219 C 884.671875 217.21875 886.421875 215.929688 888.730469 214.140625 C 893.597656 210.554688 898.734375 207.332031 903.792969 204.03125 C 905.003906 203.234375 906.21875 202.441406 907.429688 201.644531 C 909.226562 200.46875 911.023438 199.289062 912.824219 198.109375 C 917.507812 195.042969 922.179688 191.949219 926.832031 188.839844 L 928.640625 187.632812 C 929.925781 186.773438 931.210938 185.910156 932.5 185.050781 " fill-opacity="1" fill-rule="nonzero"/><path fill="#5284dc" d="M 1015.171875 74.234375 C 1014.808594 75.351562 1014.808594 75.351562 1013.945312 76.683594 C 1012.144531 77.574219 1012.144531 77.574219 1009.925781 78.40625 C 1005.496094 80.179688 1001.847656 82.207031 998.796875 85.945312 C 996.21875 89.625 994.097656 93.707031 993.125 98.109375 C 992.988281 100.296875 992.882812 102.480469 992.808594 104.671875 C 992.6875 107.222656 992.433594 109.246094 991.289062 111.582031 L 990.675781 111.582031 C 990.144531 95.675781 990.144531 95.675781 993.933594 87.875 C 996.230469 83.710938 999.140625 80.097656 1003.222656 77.578125 C 1007.027344 75.601562 1010.800781 73.96875 1015.171875 74.234375 " fill-opacity="1" fill-rule="nonzero"/><path fill="#295bcc" d="M 404.007812 241.988281 L 405.847656 243.214844 L 405.847656 244.4375 C 402.886719 245.28125 399.929688 246.121094 396.964844 246.953125 C 395.964844 247.234375 394.960938 247.519531 393.960938 247.804688 C 376.390625 252.816406 376.390625 252.816406 372.507812 252.132812 L 371.554688 251.785156 C 371.695312 250.621094 371.695312 250.621094 372.164062 249.335938 C 373.300781 248.75 373.300781 248.75 374.792969 248.359375 L 376.476562 247.917969 C 379.582031 247.199219 382.699219 246.566406 385.828125 245.96875 C 387.183594 245.703125 388.535156 245.441406 389.886719 245.175781 L 391.828125 244.792969 C 397.40625 243.699219 397.40625 243.699219 402.867188 242.171875 Z M 404.007812 241.988281 " fill-opacity="1" fill-rule="nonzero"/><path fill="#5283d7" d="M 476.269531 214.4375 L 476.882812 214.4375 C 476.902344 217.078125 476.914062 219.71875 476.921875 222.359375 L 476.9375 224.644531 L 476.945312 226.8125 L 476.953125 228.824219 L 476.882812 230.355469 L 476.269531 230.96875 C 476.167969 232.242188 476.101562 233.519531 476.042969 234.792969 C 475.792969 239.375 475.175781 243.871094 474.488281 248.40625 C 473.976562 251.78125 473.589844 255.125 473.457031 258.542969 L 473.210938 259.742188 C 472.601562 260.359375 471.988281 260.972656 471.371094 261.582031 C 470.890625 262.964844 470.890625 262.964844 470.644531 264.449219 L 470.351562 265.949219 L 470.148438 267.089844 L 469.535156 267.089844 C 469.917969 260.871094 470.683594 254.742188 471.546875 248.578125 L 471.957031 245.605469 C 472.3125 243.027344 472.667969 240.445312 473.027344 237.867188 C 473.394531 235.222656 473.761719 232.578125 474.125 229.9375 C 474.835938 224.769531 475.554688 219.605469 476.269531 214.4375 " fill-opacity="1" fill-rule="nonzero"/><path fill="#4c7fd6" d="M 243.566406 251.171875 L 246.015625 251.171875 L 246.332031 253.304688 C 247.972656 264.484375 247.972656 264.484375 252.964844 274.484375 C 254.285156 276.023438 255.765625 277.253906 257.355469 278.507812 C 258.261719 279.335938 258.261719 279.335938 259.144531 281.09375 C 259.257812 281.523438 259.371094 281.953125 259.488281 282.398438 C 255.648438 281.089844 253.097656 278.515625 250.300781 275.660156 C 246.699219 271.410156 244.917969 266.421875 243.808594 261.007812 C 243.542969 258.957031 243.503906 256.988281 243.527344 254.921875 L 243.542969 252.785156 Z M 243.566406 251.171875 " fill-opacity="1" fill-rule="nonzero"/><path fill="#2b63da" d="M 737.148438 243.824219 L 737.757812 243.824219 L 737.757812 247.5 L 738.984375 247.5 L 739.617188 248.800781 C 741.691406 252.859375 743.867188 256.363281 747.558594 259.132812 C 749.039062 259.800781 750.226562 260.085938 751.84375 260.355469 L 751.230469 261.582031 C 749.742188 262.066406 748.238281 262.5 746.714844 262.882812 L 745.441406 263.21875 C 743.648438 263.683594 742.070312 264.03125 740.210938 264.03125 C 738.542969 257.261719 737.351562 250.804688 737.148438 243.824219 " fill-opacity="1" fill-rule="nonzero"/><path fill="#5182d5" d="M 470.757812 271.375 L 472.597656 271.988281 L 473.210938 273.824219 L 474.382812 274.679688 C 475.894531 275.84375 476.324219 276.792969 477.074219 278.53125 C 478.628906 281.75 480.300781 284.320312 483.007812 286.683594 C 485.039062 288.042969 487.078125 289.285156 489.199219 290.5 C 490.671875 291.398438 491.625 292.203125 492.804688 293.417969 C 494.402344 293.859375 494.402344 293.859375 495.867188 294.03125 L 495.867188 294.640625 C 493.765625 294.929688 491.847656 294.953125 489.742188 294.640625 C 484.425781 292.25 479.414062 287.988281 475.769531 283.464844 C 473.707031 280.496094 471.878906 277.273438 470.757812 273.824219 Z M 470.757812 271.375 " fill-opacity="1" fill-rule="nonzero"/><path fill="#2d5eae" d="M 1026.804688 156.273438 C 1030.761719 156.242188 1034.71875 156.222656 1038.671875 156.207031 C 1040.019531 156.199219 1041.363281 156.191406 1042.707031 156.183594 C 1044.644531 156.167969 1046.578125 156.160156 1048.515625 156.15625 L 1050.332031 156.136719 C 1055.496094 156.136719 1055.496094 156.136719 1058.039062 157.5 L 1058.039062 158.109375 C 1055.394531 158.589844 1052.789062 158.875 1050.109375 159.050781 L 1048.902344 159.128906 C 1048.0625 159.1875 1047.21875 159.238281 1046.378906 159.292969 C 1045.117188 159.371094 1043.855469 159.457031 1042.59375 159.542969 C 1031.335938 160.28125 1031.335938 160.28125 1028.03125 159.949219 L 1026.804688 158.722656 Z M 1026.804688 156.273438 " fill-opacity="1" fill-rule="nonzero"/><path fill="#295db7" d="M 973.527344 155.664062 L 1003.535156 155.664062 L 1004.148438 156.886719 L 1002.921875 156.886719 L 1003.535156 158.722656 C 1001.699219 159.949219 1001.699219 159.949219 1000.472656 160.558594 L 999.011719 160.3125 C 995.863281 159.792969 992.714844 159.722656 989.527344 159.605469 L 987.542969 159.523438 C 985.933594 159.457031 984.324219 159.394531 982.714844 159.335938 L 982.101562 156.886719 L 973.527344 156.273438 Z M 973.527344 155.664062 " fill-opacity="1" fill-rule="nonzero"/><path fill="#5385de" d="M 436.464844 220.558594 C 438.757812 221.707031 440.992188 222.9375 443.203125 224.234375 C 441.429688 224.824219 440.140625 224.847656 438.304688 224.847656 L 437.078125 223.621094 C 436.066406 223.1875 435.046875 222.777344 434.015625 222.398438 L 434.628906 220.558594 L 433.980469 221.515625 L 432.792969 222.398438 C 431.800781 222.292969 430.8125 222.171875 429.832031 221.992188 C 424.09375 221.09375 418.378906 222.089844 412.710938 223.019531 C 412.175781 223.105469 411.640625 223.191406 411.089844 223.277344 L 409.640625 223.523438 C 408.203125 223.628906 407.195312 223.511719 405.847656 223.007812 L 405.234375 221.785156 C 407.160156 221.386719 409.085938 220.992188 411.015625 220.597656 L 412.644531 220.261719 C 420.535156 218.660156 428.824219 217.347656 436.464844 220.558594 " fill-opacity="1" fill-rule="nonzero"/><path fill="#4d7fd4" d="M 579.765625 278.722656 L 580.988281 278.722656 L 581.945312 280.867188 C 584.472656 285.792969 587.863281 288.769531 592.433594 291.773438 C 593.59375 292.515625 594.753906 293.257812 595.917969 293.996094 C 597.109375 294.769531 598.242188 295.601562 599.359375 296.476562 C 598.027344 296.878906 598.027344 296.878906 596.296875 297.089844 C 590.59375 294.996094 585.453125 290.695312 581.21875 286.414062 C 580.367188 285.382812 580.367188 285.382812 579.765625 284.234375 C 579.488281 282.351562 579.535156 280.609375 579.765625 278.722656 " fill-opacity="1" fill-rule="nonzero"/><path fill="#295bcc" d="M 1001.699219 161.785156 L 1002.308594 163.007812 L 1003.535156 163.007812 L 1003.535156 164.234375 C 1002.285156 165.203125 1002.285156 165.203125 1000.535156 166.347656 L 998.609375 167.613281 L 996.570312 168.941406 C 995.261719 169.796875 993.957031 170.652344 992.652344 171.511719 C 992.007812 171.925781 991.367188 172.34375 990.707031 172.773438 C 988.445312 174.292969 986.28125 175.929688 984.140625 177.617188 L 982.714844 178.316406 C 980.699219 178.121094 980.699219 178.121094 979.039062 177.703125 C 980.28125 175.839844 980.726562 175.496094 982.621094 174.535156 C 986.371094 172.527344 989.863281 170.164062 993.394531 167.792969 L 995.410156 166.449219 C 998.714844 164.320312 998.714844 164.320312 1001.699219 161.785156 " fill-opacity="1" fill-rule="nonzero"/><path fill="#5b88de" d="M 515.425781 72.242188 L 516.6875 72.398438 L 514.238281 73.621094 L 514.238281 74.847656 C 513.222656 75.574219 512.191406 76.273438 511.140625 76.949219 C 507.398438 79.640625 505.164062 82.308594 503.214844 86.480469 C 501.816406 90.09375 500.65625 93.785156 499.542969 97.5 L 498.316406 97.5 C 498.546875 92.28125 499.523438 87.175781 502.207031 82.625 C 503.089844 81.410156 504.039062 80.246094 505.054688 79.132812 L 506.089844 77.96875 C 508.703125 75.199219 511.476562 72.578125 515.425781 72.242188 " fill-opacity="1" fill-rule="nonzero"/><path fill="#648ce2" d="M 595.6875 76.070312 L 595.6875 76.683594 C 595.3125 76.675781 594.941406 76.671875 594.554688 76.664062 C 583.929688 76.097656 583.929688 76.097656 573.839844 78.707031 C 570.136719 80.894531 567.015625 83.609375 563.984375 86.640625 C 562.027344 88.554688 560.367188 89.476562 557.71875 90.152344 L 557.71875 88.925781 C 558.574219 88.0625 558.574219 88.0625 559.785156 87.054688 C 561.257812 85.8125 562.695312 84.566406 564.089844 83.242188 C 567.898438 79.632812 571.488281 76.941406 576.625 75.617188 C 583.097656 74.386719 589.296875 74.488281 595.6875 76.070312 " fill-opacity="1" fill-rule="nonzero"/><path fill="#295bcb" d="M 158.441406 210.152344 L 161.503906 210.152344 C 159.96875 215.105469 157.945312 219.824219 155.878906 224.578125 L 154.839844 226.980469 C 154.003906 228.921875 153.164062 230.863281 152.320312 232.804688 L 151.09375 232.804688 C 150.761719 228.8125 151.917969 225.828125 153.429688 222.167969 L 154.089844 220.472656 C 155.332031 217.402344 155.332031 217.402344 155.992188 216.273438 L 157.832031 215.660156 L 157.449219 214.285156 C 157.21875 212.601562 157.21875 212.601562 157.792969 211.183594 Z M 158.441406 210.152344 " fill-opacity="1" fill-rule="nonzero"/><path fill="#5182d7" d="M 348.28125 128.722656 L 350.730469 129.335938 C 350.070312 132.027344 349.40625 134.714844 348.738281 137.402344 C 348.515625 138.316406 348.289062 139.226562 348.066406 140.140625 C 345.960938 148.699219 345.960938 148.699219 344.777344 152.160156 C 344.179688 153.902344 343.847656 155.179688 343.652344 156.964844 C 343.246094 160.566406 342.101562 163.875 340.933594 167.292969 L 340.320312 166.070312 C 340.527344 164.582031 340.777344 163.136719 341.070312 161.667969 L 341.332031 160.3125 C 341.617188 158.851562 341.90625 157.390625 342.195312 155.929688 C 342.292969 155.4375 342.390625 154.941406 342.492188 154.433594 C 344.183594 145.808594 346.113281 137.238281 348.28125 128.722656 " fill-opacity="1" fill-rule="nonzero"/><path fill="#295bcb" d="M 377.066406 106.070312 C 376.027344 110.417969 374.90625 114.742188 373.695312 119.042969 L 373.324219 120.441406 C 372.996094 121.589844 372.585938 122.710938 372.164062 123.824219 L 370.328125 124.4375 L 369.105469 123.214844 L 369.105469 121.375 L 370.328125 121.375 L 370.375 119.855469 L 370.480469 117.855469 L 370.566406 115.875 C 370.941406 114.03125 370.941406 114.03125 372.195312 112.566406 L 373.390625 111.582031 L 372.777344 110.355469 C 372.753906 109.132812 372.75 107.90625 372.777344 106.683594 C 374.285156 105.929688 375.398438 106.027344 377.066406 106.070312 " fill-opacity="1" fill-rule="nonzero"/><path fill="#265bdd" d="M 69.648438 155.664062 L 70.871094 155.664062 C 71.933594 157.527344 72.980469 159.402344 74.011719 161.289062 L 74.925781 162.890625 L 75.777344 164.449219 L 76.574219 165.878906 L 76.996094 167.292969 C 76.460938 169.003906 76.460938 169.003906 75.769531 170.355469 C 74.636719 169.890625 74.636719 169.890625 73.320312 169.132812 C 72.527344 168.066406 72.527344 168.066406 71.855469 166.800781 L 71.117188 165.414062 L 70.375 163.964844 L 69.597656 162.523438 C 68.210938 159.875 68.210938 159.875 67.808594 158.722656 L 68.421875 156.886719 L 69.648438 156.886719 Z M 69.648438 155.664062 " fill-opacity="1" fill-rule="nonzero"/><path fill="#5283d6" d="M 457.289062 172.191406 C 459.773438 173.074219 461.972656 174.304688 464.253906 175.601562 C 466.703125 176.9375 469.21875 178.132812 471.734375 179.335938 L 473.210938 180.152344 L 473.820312 181.375 C 471.816406 181.828125 470.335938 182.105469 468.308594 181.988281 C 466.054688 181.050781 464.164062 179.734375 462.1875 178.316406 L 460.710938 177.335938 C 458.175781 175.589844 458.175781 175.589844 457.289062 174.640625 Z M 457.289062 172.191406 " fill-opacity="1" fill-rule="nonzero"/><path fill="#6691e4" d="M 47.601562 92.601562 L 48.214844 94.4375 L 46.757812 95.378906 C 41.332031 98.773438 41.332031 98.773438 36.578125 103.007812 L 35.890625 104.730469 L 35.355469 106.070312 C 33.746094 106.566406 33.746094 106.566406 32.292969 106.683594 C 34.164062 102.285156 36.75 98.917969 40.253906 95.664062 C 42.617188 94 44.664062 92.601562 47.601562 92.601562 " fill-opacity="1" fill-rule="nonzero"/><path fill="#3466c0" d="M 379.628906 266.484375 L 380.738281 267.089844 C 378.910156 267.722656 377.070312 268.335938 375.226562 268.925781 L 374.007812 269.34375 C 370.558594 270.386719 367.109375 270.304688 363.59375 269.539062 L 362.980469 268.316406 L 366.042969 268.316406 L 366.042969 266.476562 C 377.523438 265.511719 377.523438 265.511719 379.628906 266.484375 " fill-opacity="1" fill-rule="nonzero"/><path fill="#295bcc" d="M 155.992188 258.519531 L 157.832031 258.519531 L 158.441406 260.355469 C 157.804688 261.949219 157.804688 261.949219 156.835938 263.800781 C 156.496094 264.449219 156.160156 265.097656 155.8125 265.765625 C 154.46875 268.261719 153.113281 270.75 151.707031 273.214844 L 148.644531 273.214844 C 149.523438 271.335938 150.402344 269.460938 151.285156 267.589844 L 152.035156 265.984375 C 154.78125 260.15625 154.78125 260.15625 155.992188 258.519531 " fill-opacity="1" fill-rule="nonzero"/><path fill="#295bcb" d="M 356.855469 257.90625 L 358.691406 257.90625 C 359.589844 259.046875 359.589844 259.046875 360.492188 260.546875 C 361.746094 262.621094 362.878906 263.824219 364.816406 265.253906 L 364.816406 266.476562 C 361.910156 265.941406 361.910156 265.941406 360.53125 265.253906 L 359.917969 267.089844 C 358.347656 265.550781 356.878906 264.007812 355.632812 262.191406 C 355.632812 260.089844 355.632812 260.089844 356.242188 258.519531 Z M 356.855469 257.90625 " fill-opacity="1" fill-rule="nonzero"/><path fill="#295db7" d="M 1006.597656 155.664062 L 1011.496094 155.664062 L 1012.109375 158.109375 L 1005.371094 163.007812 L 1002.921875 161.785156 L 1002.921875 159.949219 L 1004.148438 159.949219 L 1004.757812 158.109375 L 1006.597656 158.109375 Z M 1006.597656 155.664062 " fill-opacity="1" fill-rule="nonzero"/><path fill="#2350ca" d="M 1010.269531 175.253906 L 1011.496094 175.867188 C 1011.574219 180.609375 1011.574219 180.609375 1010.882812 181.988281 C 1006.214844 181.453125 1006.214844 181.453125 1004.148438 180.765625 L 1004.757812 178.925781 C 1006.023438 177.945312 1006.023438 177.945312 1007.554688 176.976562 L 1009.085938 175.992188 Z M 1010.269531 175.253906 " fill-opacity="1" fill-rule="nonzero"/><path fill="#295bcc" d="M 607.933594 121.375 C 609.042969 121.722656 609.042969 121.722656 610.382812 122.601562 C 611.152344 123.996094 611.664062 125.382812 612.222656 126.886719 L 610.382812 129.335938 L 606.097656 125.050781 C 607.246094 122.066406 607.246094 122.066406 607.933594 121.375 " fill-opacity="1" fill-rule="nonzero"/><path fill="#538cde" d="M 62.910156 90.152344 C 67.78125 90.765625 71.671875 92.355469 75.769531 95.050781 C 76.929688 96.015625 77.851562 96.957031 78.832031 98.109375 C 76.609375 97.675781 74.761719 96.761719 72.746094 95.738281 L 70.855469 94.785156 C 69.675781 94.164062 68.519531 93.507812 67.378906 92.8125 C 65.875 91.929688 64.628906 91.621094 62.910156 91.375 Z M 62.910156 90.152344 " fill-opacity="1" fill-rule="nonzero"/><path fill="#295bcc" d="M 366.042969 266.476562 L 367.230469 267.089844 C 369.722656 267.90625 372.015625 267.804688 374.613281 267.703125 L 375.226562 268.925781 C 371.625 270.082031 368.714844 270.1875 364.953125 269.835938 L 363.59375 269.539062 L 362.980469 268.316406 L 366.042969 268.316406 Z M 366.042969 266.476562 " fill-opacity="1" fill-rule="nonzero"/><path fill="#2a5cca" d="M 591.398438 159.335938 C 592.421875 159.46875 592.421875 159.46875 593.847656 159.949219 C 595.429688 161.210938 595.429688 161.210938 597.0625 162.742188 L 598.71875 164.273438 L 599.972656 165.457031 C 597.699219 165.457031 596.414062 164.742188 594.425781 163.71875 C 592.976562 162.855469 591.882812 161.835938 590.789062 160.558594 Z M 591.398438 159.335938 " fill-opacity="1" fill-rule="nonzero"/><path fill="#6e97dd" d="M 343.996094 149.539062 L 344.609375 149.539062 C 344.929688 155.621094 342.875 161.609375 340.933594 167.292969 L 340.320312 166.070312 C 340.472656 164.871094 340.679688 163.675781 340.910156 162.488281 C 341.046875 161.777344 341.183594 161.066406 341.324219 160.335938 L 341.777344 158.074219 C 341.921875 157.324219 342.0625 156.574219 342.210938 155.804688 C 343.011719 151.714844 343.011719 151.714844 343.382812 150.152344 Z M 343.996094 149.539062 " fill-opacity="1" fill-rule="nonzero"/><path fill="#4b7ed5" d="M 885.957031 169.742188 C 887.039062 169.894531 887.039062 169.894531 888.40625 170.355469 C 889.582031 171.488281 889.582031 171.488281 890.703125 172.84375 L 891.84375 174.203125 L 892.691406 175.253906 L 890.855469 175.867188 C 889.605469 175.207031 889.605469 175.207031 888.292969 174.222656 L 886.964844 173.257812 L 885.957031 172.191406 Z M 885.957031 169.742188 " fill-opacity="1" fill-rule="nonzero"/><path fill="#295bcc" d="M 724.898438 265.867188 L 726.125 265.867188 L 727.347656 270.765625 L 724.898438 271.375 C 724.210938 270.34375 724.210938 270.34375 723.675781 268.925781 C 724.210938 267.242188 724.210938 267.242188 724.898438 265.867188 " fill-opacity="1" fill-rule="nonzero"/><path fill="#5d8bd9" d="M 705.304688 169.742188 L 705.914062 169.742188 C 706.460938 173.378906 706.507812 176.519531 705.914062 180.152344 L 704.691406 180.152344 C 703.871094 177.839844 704.246094 175.953125 704.652344 173.570312 L 705.015625 171.398438 Z M 705.304688 169.742188 " fill-opacity="1" fill-rule="nonzero"/><path fill="#295bcb" d="M 172.527344 174.640625 L 174.976562 176.476562 C 174.59375 177.664062 174.59375 177.664062 173.753906 178.925781 C 171.839844 179.386719 171.839844 179.386719 170.078125 179.539062 C 170.308594 178.355469 170.308594 178.355469 170.691406 177.089844 L 171.914062 176.476562 Z M 172.527344 174.640625 " fill-opacity="1" fill-rule="nonzero"/><path fill="#6c94e1" d="M 932.5 185.050781 L 933.722656 185.664062 C 932.882812 186.582031 932.882812 186.582031 931.886719 187.5 L 930.660156 187.5 L 930.164062 188.683594 L 929.4375 189.949219 L 927.597656 190.558594 L 926.988281 189.335938 C 928.667969 187.53125 930.285156 186.15625 932.5 185.050781 " fill-opacity="1" fill-rule="nonzero"/><path fill="#295bcc" d="M 284.59375 121.988281 L 285.820312 121.988281 L 286.433594 126.273438 L 283.980469 126.273438 C 283.597656 124.820312 283.597656 124.820312 283.371094 123.214844 Z M 284.59375 121.988281 " fill-opacity="1" fill-rule="nonzero"/><path fill="#2158bf" d="M 390.539062 264.03125 C 388.132812 265.046875 385.703125 265.789062 383.1875 266.476562 L 381.964844 264.640625 C 382.933594 264.417969 383.902344 264.203125 384.871094 263.992188 L 386.507812 263.625 C 388.078125 263.417969 389.050781 263.53125 390.539062 264.03125 " fill-opacity="1" fill-rule="nonzero"/><path fill="#4f80d4" d="M 578.539062 251.171875 L 581.601562 251.171875 L 580.988281 255.457031 L 579.765625 255.457031 L 579.496094 254.003906 C 579.226562 252.417969 579.226562 252.417969 578.539062 251.171875 " fill-opacity="1" fill-rule="nonzero"/><path fill="#295bcc" d="M 377.066406 265.867188 L 380.738281 266.476562 L 380.125 267.703125 C 378.503906 268.066406 376.886719 268.15625 375.226562 268.316406 L 375.226562 267.089844 L 377.066406 267.089844 Z M 975.363281 179.539062 L 976.589844 181.988281 L 974.140625 183.214844 L 972.914062 181.375 Z M 581.601562 153.824219 C 582.75 153.976562 582.75 153.976562 584.050781 154.4375 C 584.816406 155.699219 584.816406 155.699219 585.277344 156.886719 L 581.601562 155.664062 Z M 581.601562 153.824219 " fill-opacity="1" fill-rule="nonzero"/></svg>